<?xml version="1.0" encoding="iso-8859-1"?>
<!-- Generator: Adobe Illustrator 19.0.0, SVG Export Plug-In . SVG Version: 6.00 Build 0)  -->
<svg version="1.1" id="Capa_1" xmlns="http://www.w3.org/2000/svg" xmlns:xlink="http://www.w3.org/1999/xlink" x="0px" y="0px"
	 viewBox="0 0 54.179 54.179" style="enable-background:new 0 0 54.179 54.179;" xml:space="preserve">
<g>
	<g>
		<path d="M52.426,8.918c-2.048-2.048-5.223-2.302-7.552-0.761l-2.261-7.361c-0.129-0.42-0.517-0.706-0.956-0.706
			s-0.827,0.286-0.956,0.706l-2.356,7.675c-3.401-1.779-7.2-2.715-11.062-2.715c-3.948,0-7.821,0.975-11.277,2.83l-2.393-7.79
			c-0.129-0.42-0.517-0.706-0.956-0.706s-0.827,0.287-0.956,0.706L9.418,8.233c-2.34-1.625-5.584-1.397-7.665,0.685
			c-2.339,2.34-2.337,6.148,0.005,8.49L5.08,20.73c-1.192,2.916-1.797,6.005-1.797,9.192c0,13.326,10.767,24.167,24,24.167
			s24-10.841,24-24.167c0-3.291-0.643-6.472-1.91-9.465l3.049-3.05C54.764,15.066,54.766,11.258,52.426,8.918z M51.008,15.994
			l-3.533,3.533c-0.296,0.295-0.376,0.743-0.202,1.123c1.334,2.916,2.011,6.036,2.011,9.273c0,12.223-9.869,22.167-22,22.167
			s-22-9.944-22-22.167c0-3.14,0.638-6.173,1.896-9.018c0.168-0.378,0.085-0.819-0.207-1.111l-3.8-3.8
			c-1.562-1.563-1.565-4.102-0.005-5.662C3.946,9.554,4.97,9.164,5.993,9.164c1.026,0,2.054,0.392,2.836,1.174l0.383,0.382
			c0.248,0.248,0.61,0.347,0.948,0.263c0.34-0.085,0.611-0.342,0.714-0.677l1.783-5.81l1.804,5.872
			c0.091,0.295,0.313,0.531,0.601,0.641s0.611,0.081,0.875-0.08c3.413-2.076,7.337-3.173,11.347-3.173
			c3.926,0,7.779,1.055,11.145,3.051c0.264,0.157,0.585,0.183,0.87,0.072c0.286-0.11,0.506-0.346,0.596-0.639l1.764-5.744
			l1.752,5.706c0.104,0.335,0.374,0.592,0.715,0.677c0.343,0.083,0.7-0.017,0.948-0.264l0.278-0.278
			c1.563-1.561,4.101-1.564,5.661-0.005c0.754,0.754,1.169,1.759,1.169,2.829S51.764,15.237,51.008,15.994z"/>
		<path d="M27.283,30.09c-7.168,0-13,4.486-13,10s5.832,10,13,10s13-4.486,13-10S34.451,30.09,27.283,30.09z M27.283,48.09
			c-6.065,0-11-3.589-11-8s4.935-8,11-8s11,3.589,11,8S33.349,48.09,27.283,48.09z"/>
		<path d="M19.783,36.09c-1.425,0-2.5,1.505-2.5,3.5s1.075,3.5,2.5,3.5s2.5-1.505,2.5-3.5S21.208,36.09,19.783,36.09z
			 M19.783,41.083c-0.156-0.091-0.5-0.621-0.5-1.493c0-0.913,0.377-1.452,0.479-1.503c0.144,0.051,0.521,0.59,0.521,1.503
			C20.283,40.462,19.939,40.992,19.783,41.083z"/>
		<circle cx="18.283" cy="26.09" r="2"/>
		<circle cx="36.283" cy="26.09" r="2"/>
		<path d="M34.783,36.09c-1.425,0-2.5,1.505-2.5,3.5s1.075,3.5,2.5,3.5s2.5-1.505,2.5-3.5S36.208,36.09,34.783,36.09z
			 M34.783,41.083c-0.156-0.091-0.5-0.621-0.5-1.493c0-0.913,0.377-1.452,0.479-1.503c0.144,0.051,0.521,0.59,0.521,1.503
			C35.283,40.462,34.939,40.992,34.783,41.083z"/>
	</g>
</g>
<g>
</g>
<g>
</g>
<g>
</g>
<g>
</g>
<g>
</g>
<g>
</g>
<g>
</g>
<g>
</g>
<g>
</g>
<g>
</g>
<g>
</g>
<g>
</g>
<g>
</g>
<g>
</g>
<g>
</g>
</svg>
